# xmcd
#
# Track frame offsets:
#	150
#	18257
#	37315
#	57870
#	77342
#	97700
#	119447
#	136500
#	154707
#	173327
#	190675
#	206802
#	224317
#	242685
#
# Disc length: 3803 seconds
#
# Revision: 0
# Processed by: cddbd v1.4PL0 Copyright (c) Steve Scherf et al.
# Submitted via: dBpowerAMP V4.0
#
DISCID=a90ed90e
DTITLE=Sublimes - Sublimes
DYEAR=1900
DGENRE=Soul
TTITLE0=Beleza Fisica
TTITLE1=Eu Queria Um Amor
TTITLE2=Mil e Uma Noites
TTITLE3=Nunca Mais
TTITLE4=So pra Ser
TTITLE5=Tempo e Espaco
TTITLE6=Menos Carnaval
TTITLE7=Mais Que Hoje
TTITLE8=Dizem
TTITLE9=Posso te Amar
TTITLE10=Eu Quero Voce
TTITLE11=O Amor Que Voce Quer Me Dar
TTITLE12=Eu Queria Um Amor (Dance Remix)
TTITLE13=Eu Queria Um Amor (Hip Hop Remix)
EXTD=
EXTT0=
EXTT1=
EXTT2=
EXTT3=
EXTT4=
EXTT5=
EXTT6=
EXTT7=
EXTT8=
EXTT9=
EXTT10=
EXTT11=
EXTT12=
EXTT13=
PLAYORDER=
